<svg width="532" height="355" viewBox="0 0 532 355" fill="none" xmlns="http://www.w3.org/2000/svg">
<path d="M150 258V97H210.158C226.3 97 238.051 99.8498 245.411 105.549C252.77 111.249 256.45 120.651 256.45 133.754V140.805C256.763 147.377 254.792 153.858 250.855 159.197C246.51 164.233 240.416 167.528 233.74 168.451C243.766 170.273 250.474 174.552 253.863 181.29C257.478 189.015 259.228 197.449 258.976 205.939C259.147 215.219 257.786 224.465 254.946 233.321C252.428 240.889 247.235 247.336 240.297 251.507C233.259 255.855 223.182 258 210.218 258H150ZM193.284 157.522H202.307C206.428 157.522 209.075 156.376 210.278 154.055C211.509 151.442 212.106 148.587 212.023 145.711V129.523C212.023 124.352 208.865 121.738 202.578 121.738H193.284V157.522ZM197.705 229.531C209.236 229.531 215.001 225.565 215.001 217.632V197.507C215.209 193.693 214.211 189.908 212.143 186.666C210.238 184.022 206.689 182.7 201.495 182.7H193.284V229.355C195.289 229.472 196.793 229.531 197.796 229.531H197.705Z" fill="white"/>
<path d="M326.274 258C313.113 258 302.636 256.104 294.842 252.312C287.586 249.049 281.662 243.259 278.097 235.947C274.534 227.872 272.806 219.058 273.045 210.184V153.181C272.746 147.289 273.945 141.418 276.522 136.155C279.1 130.893 282.965 126.422 287.733 123.19C297.525 116.417 311.077 113.02 328.389 113C363.875 113 381.618 126.394 381.618 153.181V163.493C381.618 176.005 381.451 184.41 381.118 188.709H317.255V216.085C317.253 218.572 317.459 221.056 317.872 223.506C318.233 225.796 319.257 227.917 320.81 229.59C321.751 230.459 322.855 231.117 324.053 231.526C325.25 231.934 326.516 232.082 327.772 231.962C332.354 231.962 335.233 230.411 336.379 227.369C337.651 223.516 338.238 219.455 338.112 215.385V201.728H381.97V209.788C382.255 218.968 380.506 228.093 376.859 236.464C373.207 243.853 367.075 249.608 359.615 252.646C351.331 256.236 340.217 258.02 326.274 258ZM316.903 171.706H337.818V152.573C338.128 148.716 337.265 144.856 335.351 141.532C334.464 140.403 333.329 139.511 332.041 138.929C330.754 138.347 329.35 138.092 327.948 138.186C326.439 138.089 324.928 138.326 323.514 138.882C322.101 139.438 320.819 140.3 319.752 141.41C317.498 144.639 316.454 148.606 316.815 152.573L316.903 171.706Z" fill="white"/>
<path d="M395.893 24H136.107C111.747 24 92 43.4434 92 67.4281V287.572C92 311.557 111.747 331 136.107 331H395.893C420.253 331 440 311.557 440 287.572V67.4281C440 43.4434 420.253 24 395.893 24Z" stroke="#5984C0" stroke-width="20.99" stroke-miterlimit="10"/>
</svg>
