<svg width="532" height="187" viewBox="0 0 532 187" fill="none" xmlns="http://www.w3.org/2000/svg">
<path d="M43 150.728V62.2405H71.4509V72.5005C72.624 69.06 74.9849 66.1221 78.1317 64.187C82.3962 62.0139 87.1895 61.0182 91.9929 61.3077C96.29 61.1968 100.558 62.0284 104.481 63.741C107.569 65.064 110.127 67.3359 111.765 70.2093C113.821 67.4322 116.515 65.1617 119.632 63.5787C123.703 61.8601 128.126 61.0828 132.557 61.3077C137.979 61.0161 143.385 62.0989 148.25 64.4506C151.774 66.4007 154.484 69.4934 155.909 73.1899C157.39 77.3254 158.095 81.6869 157.99 86.0657V150.728H128.852V85.721C128.852 80.0165 126.84 77.1642 122.816 77.1642C121.041 77.0537 119.29 77.6127 117.925 78.7255C116.779 79.7754 115.957 81.117 115.553 82.5984C115.123 84.0967 114.906 85.6454 114.908 87.2012V150.728H86.0197V85.721C86.0046 83.8314 85.6814 81.956 85.0624 80.1652C84.7177 79.2395 84.0544 78.4588 83.1854 77.956C82.3164 77.4532 81.2954 77.2594 80.2962 77.4075C79.3797 77.3529 78.461 77.4753 77.5931 77.7676C76.7252 78.0599 75.9251 78.5164 75.2388 79.1108C74.042 80.27 73.199 81.73 72.8037 83.3283C72.3796 84.9383 72.1629 86.5935 72.1585 88.2556V150.728H43Z" fill="#5984C0"/>
<path d="M204.947 150.728C180.311 150.728 168 141.673 168.014 123.562V88.4048C167.88 84.6042 168.7 80.8281 170.407 77.3912C172.114 73.9544 174.658 70.9565 177.827 68.6476C184.354 63.7083 193.394 61.2453 204.947 61.2587C216.5 61.2721 225.576 63.7351 232.173 68.6476C235.342 70.9565 237.886 73.9544 239.593 77.3912C241.3 80.8281 242.12 84.6042 241.986 88.4048V123.562C241.986 141.673 229.64 150.728 204.947 150.728ZM204.947 134.666C205.927 134.759 206.917 134.637 207.84 134.31C208.763 133.983 209.596 133.459 210.275 132.778C211.384 131.401 211.95 129.695 211.875 127.959V85.0919C211.875 79.9719 209.58 77.442 204.947 77.442C200.315 77.442 198.02 79.9719 198.02 85.0919V127.879C197.95 129.617 198.524 131.323 199.641 132.698C200.314 133.381 201.143 133.908 202.062 134.238C202.982 134.569 203.969 134.695 204.947 134.605V134.666Z" fill="#5984C0"/>
<path d="M301.07 150.707C297.051 150.884 293.058 149.975 289.501 148.073C286.408 146.145 283.942 143.339 282.407 140.004V149.745H253V42.7198H282.407V68.2638C284.091 64.9876 286.649 62.257 289.789 60.3832C293.98 58.2675 298.643 57.2949 303.317 57.5613C311.236 57.5613 316.825 59.6516 320.083 64.0622C323.532 69.0259 325.252 75.0129 324.97 81.0776V125.957C325.022 130.274 324.157 134.551 322.434 138.499C320.776 142.195 318.041 145.288 314.597 147.362C310.477 149.717 305.796 150.874 301.07 150.707V150.707ZM289.109 133.733C292.188 133.733 294.044 132.604 294.677 130.347C295.372 127.617 295.698 124.804 295.646 121.985V86.4497C295.701 83.6308 295.375 80.8175 294.677 78.0884C294.037 75.8308 292.202 74.702 289.191 74.702C286.181 74.702 284.16 75.8517 283.458 78.1511C282.699 80.8695 282.344 83.6878 282.407 86.5124V122.048C282.346 124.873 282.7 127.691 283.458 130.41C284.16 132.604 286.036 133.733 289.109 133.733Z" fill="#5984C0"/>
<path d="M336 54.9997V37.0776H365V54.9997H336ZM336 150.729V60.5189H365V150.729H336Z" fill="#5984C0"/>
<path d="M377 150.728V42.7198H406V150.728H377Z" fill="#5984C0"/>
<path d="M452.286 150.681C445.162 150.973 438.057 149.775 431.46 147.169C426.657 145.177 422.729 141.627 420.36 137.135C418.009 132.158 416.869 126.728 417.028 121.261V86.0022C416.835 82.365 417.637 78.7428 419.355 75.4988C421.073 72.2548 423.646 69.5032 426.816 67.5198C433.328 63.3457 442.296 61.2587 453.723 61.2587C477.214 61.2587 488.959 69.5065 488.959 86.0022V92.3637C488.959 100.07 488.855 105.247 488.647 107.896H446.246V124.813C446.237 126.354 446.377 127.893 446.663 129.409C446.875 130.789 447.513 132.076 448.495 133.101C449.114 133.641 449.844 134.05 450.636 134.302C451.429 134.554 452.267 134.644 453.098 134.566C456.138 134.566 458.054 133.623 458.804 131.737C459.651 129.363 460.039 126.86 459.949 124.352V115.943H488.98V120.9C489.17 126.555 488.016 132.176 485.606 137.336C483.2 141.91 479.141 145.479 474.194 147.37C467.19 149.856 459.744 150.982 452.286 150.681V150.681ZM446.038 97.5011H459.908V85.7012C460.116 83.3321 459.548 80.9597 458.283 78.9183C457.693 78.2312 456.941 77.6905 456.09 77.3413C455.238 76.9921 454.312 76.8448 453.389 76.9115C452.387 76.8545 451.384 77.004 450.447 77.35C449.51 77.6961 448.66 78.2307 447.954 78.9183C446.472 80.9135 445.791 83.3593 446.038 85.8016V97.5011Z" fill="#5984C0"/>
</svg>
